<svg width="28" height="28" viewBox="0 0 28 28" fill="none" xmlns="http://www.w3.org/2000/svg">
<circle cx="14" cy="14" r="14" fill="white"/>
<path d="M22 14.8422C22 14.2011 21.9452 13.5924 21.8512 13H13V16.6601H18.0679C17.8407 17.8611 17.1749 18.8756 16.188 19.5654V22H19.2115C20.9817 20.3039 22 17.8043 22 14.8422Z" fill="#4285F4"/>
<path d="M13.044 24C15.4775 24 17.5129 23.1102 19 21.6025L16.1009 19.1308C15.2897 19.724 14.2607 20.0865 13.044 20.0865C10.6931 20.0865 8.70279 18.3481 7.98927 16H5V18.5458C6.47961 21.7755 9.52146 24 13.044 24Z" fill="#34A853"/>
<path d="M8 16.4154C7.81025 15.8132 7.71157 15.1691 7.71157 14.5C7.71157 13.8309 7.81784 13.1868 8 12.5846V10H4.97913C4.35674 11.355 4 12.8773 4 14.5C4 16.1227 4.35674 17.645 4.97913 19L8 16.4154Z" fill="#FBBC05"/>
<path d="M13.0053 8.91349C14.3284 8.91349 15.5093 9.41607 16.4437 10.3965L19 7.57878C17.4528 5.98043 15.4271 5 13.0053 5C9.49973 5 6.4725 7.22451 5 10.4542L7.97491 13C8.685 10.6519 10.6658 8.91349 13.0053 8.91349Z" fill="#EA4335"/>
</svg>
